<svg xmlns="http://www.w3.org/2000/svg" width="148.404" height="156.798" viewBox="0 0 148.404 156.798">
  <g id="Group_2527" data-name="Group 2527" transform="translate(-90.118 -91.565)">
    <g id="Group_2479" data-name="Group 2479" transform="translate(178.444 128.609)">
      <g id="Group_2478" data-name="Group 2478">
        <g id="Group_2477" data-name="Group 2477">
          <g id="Group_2475" data-name="Group 2475">
            <path id="Path_5219" data-name="Path 5219" d="M188.676,205.708h-11a.829.829,0,0,1-.82-.711l-1.222-8.556a32.236,32.236,0,0,1-10.3-4.371.827.827,0,1,1,.9-1.387,30.669,30.669,0,0,0,10.315,4.267.829.829,0,0,1,.646.692l1.2,8.411h9.565l1.2-8.423a.827.827,0,0,1,.647-.692,30.505,30.505,0,0,0,10.312-4.265.821.821,0,0,1,.946.033l6.8,5.1,6.765-6.764-5.1-6.8a.829.829,0,0,1-.033-.946,30.548,30.548,0,0,0,4.259-10.309.827.827,0,0,1,.691-.647l8.427-1.205v-9.565l-8.416-1.2a.83.83,0,0,1-.666-.558,31.086,31.086,0,0,0-4.282-10.376.83.83,0,0,1,.017-.969l5.1-6.8-6.765-6.764-6.8,5.1a.83.83,0,0,1-1.017-.019,31.011,31.011,0,0,0-10.234-4.22.982.982,0,0,1-.652-.694l-1.2-8.416h-9.566l-1.2,8.429a.826.826,0,0,1-.647.691,30.542,30.542,0,0,0-10.309,4.258.827.827,0,1,1-.9-1.388,32.187,32.187,0,0,1,10.3-4.362l1.224-8.571a.828.828,0,0,1,.82-.71h11a.828.828,0,0,1,.82.71l1.224,8.563a32.236,32.236,0,0,1,9.808,4.062l6.921-5.189a.825.825,0,0,1,1.081.077L216.31,139a.827.827,0,0,1,.076,1.081L211.2,147a32.5,32.5,0,0,1,4.064,9.812l8.561,1.225a.827.827,0,0,1,.71.819v11a.828.828,0,0,1-.711.82L215.25,171.9a32.156,32.156,0,0,1-4.05,9.812l5.187,6.915a.827.827,0,0,1-.076,1.081l-7.78,7.78a.826.826,0,0,1-1.081.076l-6.917-5.188a32.129,32.129,0,0,1-9.812,4.058L189.5,205A.828.828,0,0,1,188.676,205.708Z" transform="translate(-164.955 -122.996)" fill="#e03116" stroke="#e03116" stroke-width="1"/>
          </g>
          <g id="Group_2476" data-name="Group 2476" transform="translate(5.434 28.566)">
            <path id="Path_5220" data-name="Path 5220" d="M182.342,172.752a12.789,12.789,0,1,1,12.788-12.788A12.8,12.8,0,0,1,182.342,172.752Zm0-23.922a11.134,11.134,0,1,0,11.134,11.134A11.147,11.147,0,0,0,182.342,148.83Z" transform="translate(-169.554 -147.175)" fill="#e03116" stroke="#e03116" stroke-width="1"/>
          </g>
        </g>
      </g>
    </g>
    <g id="Group_2500" data-name="Group 2500" transform="translate(96.059 92.065)">
      <g id="Group_2489" data-name="Group 2489" transform="translate(0 115.783)">
        <g id="Group_2482" data-name="Group 2482" transform="translate(24.968 5.984)">
          <g id="Group_2480" data-name="Group 2480">
            <path id="Path_5221" data-name="Path 5221" d="M199.284,214.968h-82.1a.827.827,0,1,1,0-1.654h82.1a6.371,6.371,0,0,0,6.363-6.363V195.957a.827.827,0,0,1,1.654,0V206.95A8.026,8.026,0,0,1,199.284,214.968Z" transform="translate(-116.356 -195.13)" fill="#e03116" stroke="#e03116" stroke-width="1"/>
          </g>
          <g id="Group_2481" data-name="Group 2481" transform="translate(54.035 11.032)">
            <path id="Path_5222" data-name="Path 5222" d="M188.187,206.122H162.919a.827.827,0,1,1,0-1.654h25.268a.827.827,0,1,1,0,1.654Z" transform="translate(-162.092 -204.468)" fill="#e03116" stroke="#e03116" stroke-width="1"/>
          </g>
        </g>
        <g id="Group_2488" data-name="Group 2488">
          <g id="Group_2483" data-name="Group 2483" transform="translate(119.035 28.224)">
            <path id="Path_5223" data-name="Path 5223" d="M201.871,225.746a5.9,5.9,0,1,1,5.9-5.9A5.9,5.9,0,0,1,201.871,225.746Zm0-10.138a4.242,4.242,0,1,0,4.243,4.243A4.247,4.247,0,0,0,201.871,215.608Z" transform="translate(-195.976 -213.954)" fill="#e03116" stroke="#e03116" stroke-width="1"/>
          </g>
          <g id="Group_2484" data-name="Group 2484" transform="translate(0 28.224)">
            <path id="Path_5224" data-name="Path 5224" d="M101.12,225.746a5.9,5.9,0,1,1,5.9-5.9A5.9,5.9,0,0,1,101.12,225.746Zm0-10.138a4.242,4.242,0,1,0,4.241,4.243A4.248,4.248,0,0,0,101.12,215.608Z" transform="translate(-95.223 -213.954)" fill="#e03116" stroke="#e03116" stroke-width="1"/>
          </g>
          <g id="Group_2485" data-name="Group 2485" transform="translate(51.918 33.293)">
            <path id="Path_5225" data-name="Path 5225" d="M199.675,219.9H140a.828.828,0,1,1,0-1.655h59.68a.828.828,0,0,1,0,1.655Z" transform="translate(-139.167 -218.245)" fill="#e03116" stroke="#e03116" stroke-width="1"/>
          </g>
          <g id="Group_2486" data-name="Group 2486" transform="translate(124.104)">
            <path id="Path_5226" data-name="Path 5226" d="M201.093,213.011a.826.826,0,0,1-.827-.827V190.892a.827.827,0,0,1,1.654,0v21.292A.826.826,0,0,1,201.093,213.011Z" transform="translate(-200.266 -190.065)" fill="#e03116" stroke="#e03116" stroke-width="1"/>
          </g>
          <g id="Group_2487" data-name="Group 2487" transform="translate(10.593 33.293)">
            <path id="Path_5227" data-name="Path 5227" d="M133.815,219.9h-28.8a.828.828,0,0,1,0-1.655h28.8a.828.828,0,0,1,0,1.655Z" transform="translate(-104.189 -218.245)" fill="#e03116" stroke="#e03116" stroke-width="1"/>
          </g>
        </g>
      </g>
      <g id="Group_2499" data-name="Group 2499">
        <g id="Group_2492" data-name="Group 2492" transform="translate(24.968 14.194)">
          <g id="Group_2490" data-name="Group 2490">
            <path id="Path_5228" data-name="Path 5228" d="M206.474,123.917a.826.826,0,0,1-.827-.827V112.1a6.37,6.37,0,0,0-6.363-6.362h-82.1a.828.828,0,1,1,0-1.655h82.1A8.026,8.026,0,0,1,207.3,112.1V123.09A.826.826,0,0,1,206.474,123.917Z" transform="translate(-116.356 -104.079)" fill="#e03116" stroke="#e03116" stroke-width="1"/>
          </g>
          <g id="Group_2491" data-name="Group 2491" transform="translate(54.035 7.151)">
            <path id="Path_5229" data-name="Path 5229" d="M188.187,111.786H162.919a.827.827,0,1,1,0-1.654h25.268a.827.827,0,1,1,0,1.654Z" transform="translate(-162.092 -110.132)" fill="#e03116" stroke="#e03116" stroke-width="1"/>
          </g>
        </g>
        <g id="Group_2498" data-name="Group 2498">
          <g id="Group_2493" data-name="Group 2493" transform="translate(119.035)">
            <path id="Path_5230" data-name="Path 5230" d="M201.871,103.856a5.9,5.9,0,1,1,5.9-5.9A5.9,5.9,0,0,1,201.871,103.856Zm0-10.137a4.241,4.241,0,1,0,4.243,4.241A4.246,4.246,0,0,0,201.871,93.719Z" transform="translate(-195.976 -92.065)" fill="#e03116" stroke="#e03116" stroke-width="1"/>
          </g>
          <g id="Group_2494" data-name="Group 2494">
            <path id="Path_5231" data-name="Path 5231" d="M101.12,103.856a5.9,5.9,0,1,1,5.9-5.9A5.9,5.9,0,0,1,101.12,103.856Zm0-10.137a4.241,4.241,0,1,0,4.241,4.241A4.247,4.247,0,0,0,101.12,93.719Z" transform="translate(-95.223 -92.065)" fill="#e03116" stroke="#e03116" stroke-width="1"/>
          </g>
          <g id="Group_2495" data-name="Group 2495" transform="translate(51.918 5.068)">
            <path id="Path_5232" data-name="Path 5232" d="M199.675,98.009H140a.827.827,0,1,1,0-1.654h59.68a.827.827,0,1,1,0,1.654Z" transform="translate(-139.167 -96.355)" fill="#e03116" stroke="#e03116" stroke-width="1"/>
          </g>
          <g id="Group_2496" data-name="Group 2496" transform="translate(124.104 17.07)">
            <path id="Path_5233" data-name="Path 5233" d="M201.093,129.459a.826.826,0,0,1-.827-.827V107.34a.827.827,0,0,1,1.654,0v21.292A.826.826,0,0,1,201.093,129.459Z" transform="translate(-200.266 -106.513)" fill="#e03116" stroke="#e03116" stroke-width="1"/>
          </g>
          <g id="Group_2497" data-name="Group 2497" transform="translate(10.593 5.068)">
            <path id="Path_5234" data-name="Path 5234" d="M133.815,98.009h-28.8a.827.827,0,0,1,0-1.654h28.8a.827.827,0,1,1,0,1.654Z" transform="translate(-104.189 -96.355)" fill="#e03116" stroke="#e03116" stroke-width="1"/>
          </g>
        </g>
      </g>
    </g>
    <g id="Group_2526" data-name="Group 2526" transform="translate(90.618 116.93)">
      <g id="Group_2501" data-name="Group 2501">
        <path id="Path_5235" data-name="Path 5235" d="M166.737,219.181H99.31a8.7,8.7,0,0,1-8.692-8.693V121.8a8.7,8.7,0,0,1,8.692-8.692h67.427a8.7,8.7,0,0,1,8.691,8.692v88.685A8.7,8.7,0,0,1,166.737,219.181ZM99.31,114.765a7.044,7.044,0,0,0-7.037,7.038v88.685a7.044,7.044,0,0,0,7.037,7.038h67.427a7.045,7.045,0,0,0,7.037-7.038V121.8a7.045,7.045,0,0,0-7.037-7.038Z" transform="translate(-90.618 -113.111)" fill="#e03116" stroke="#e03116" stroke-width="1"/>
      </g>
      <g id="Group_2509" data-name="Group 2509" transform="translate(12.187 76.144)">
        <g id="Group_2504" data-name="Group 2504" transform="translate(23.028 5.443)">
          <g id="Group_2502" data-name="Group 2502">
            <path id="Path_5236" data-name="Path 5236" d="M157.889,183.821H121.251a.827.827,0,0,1,0-1.654h36.638a.827.827,0,1,1,0,1.654Z" transform="translate(-120.424 -182.167)" fill="#e03116" stroke="#e03116" stroke-width="1"/>
          </g>
          <g id="Group_2503" data-name="Group 2503" transform="translate(0 6.927)">
            <path id="Path_5237" data-name="Path 5237" d="M150.726,189.685H121.251a.828.828,0,0,1,0-1.655h29.475a.828.828,0,1,1,0,1.655Z" transform="translate(-120.424 -188.03)" fill="#e03116" stroke="#e03116" stroke-width="1"/>
          </g>
        </g>
        <g id="Group_2508" data-name="Group 2508">
          <g id="Group_2507" data-name="Group 2507">
            <g id="Group_2505" data-name="Group 2505">
              <path id="Path_5238" data-name="Path 5238" d="M110.676,197.029A9.736,9.736,0,1,1,120.4,187.3a9.733,9.733,0,0,1-9.727,9.727Zm0-17.815a8.1,8.1,0,0,0-8.089,8.088,8.083,8.083,0,1,0,8.089-8.088Z" transform="translate(-100.933 -177.56)" fill="#e03116" stroke="#e03116" stroke-width="1"/>
            </g>
            <g id="Group_2506" data-name="Group 2506" transform="translate(3.959 7.106)">
              <path id="Path_5239" data-name="Path 5239" d="M109.172,191.055a.824.824,0,0,1-.585-.242l-4.061-4.06a.827.827,0,0,1,1.17-1.171l3.477,3.477,5.252-5.243a.827.827,0,0,1,1.168,1.171l-5.836,5.826A.824.824,0,0,1,109.172,191.055Z" transform="translate(-104.284 -183.574)" fill="#e03116" stroke="#e03116" stroke-width="1"/>
            </g>
          </g>
        </g>
      </g>
      <g id="Group_2517" data-name="Group 2517" transform="translate(12.187 45.948)">
        <g id="Group_2512" data-name="Group 2512" transform="translate(23.028 5.443)">
          <g id="Group_2510" data-name="Group 2510">
            <path id="Path_5240" data-name="Path 5240" d="M157.889,158.264H121.251a.828.828,0,0,1,0-1.655h36.638a.828.828,0,0,1,0,1.655Z" transform="translate(-120.424 -156.609)" fill="#e03116" stroke="#e03116" stroke-width="1"/>
          </g>
          <g id="Group_2511" data-name="Group 2511" transform="translate(0 6.928)">
            <path id="Path_5241" data-name="Path 5241" d="M150.726,164.127H121.251a.827.827,0,0,1,0-1.654h29.475a.827.827,0,1,1,0,1.654Z" transform="translate(-120.424 -162.473)" fill="#e03116" stroke="#e03116" stroke-width="1"/>
          </g>
        </g>
        <g id="Group_2516" data-name="Group 2516">
          <g id="Group_2515" data-name="Group 2515">
            <g id="Group_2513" data-name="Group 2513">
              <path id="Path_5242" data-name="Path 5242" d="M110.676,171.47a9.735,9.735,0,1,1,9.727-9.727,9.731,9.731,0,0,1-9.727,9.727Zm0-17.814a8.1,8.1,0,0,0-8.089,8.087,8.083,8.083,0,1,0,8.089-8.087Z" transform="translate(-100.933 -152.002)" fill="#e03116" stroke="#e03116" stroke-width="1"/>
            </g>
            <g id="Group_2514" data-name="Group 2514" transform="translate(3.959 7.107)">
              <path id="Path_5243" data-name="Path 5243" d="M109.172,165.5a.829.829,0,0,1-.585-.242l-4.061-4.062a.827.827,0,0,1,1.17-1.17l3.477,3.477,5.252-5.243a.827.827,0,0,1,1.168,1.171l-5.836,5.827A.829.829,0,0,1,109.172,165.5Z" transform="translate(-104.284 -158.017)" fill="#e03116" stroke="#e03116" stroke-width="1"/>
            </g>
          </g>
        </g>
      </g>
      <g id="Group_2525" data-name="Group 2525" transform="translate(12.187 15.751)">
        <g id="Group_2520" data-name="Group 2520" transform="translate(23.028 5.444)">
          <g id="Group_2518" data-name="Group 2518">
            <path id="Path_5244" data-name="Path 5244" d="M157.889,132.706H121.251a.828.828,0,0,1,0-1.655h36.638a.828.828,0,0,1,0,1.655Z" transform="translate(-120.424 -131.051)" fill="#e03116" stroke="#e03116" stroke-width="1"/>
          </g>
          <g id="Group_2519" data-name="Group 2519" transform="translate(0 6.928)">
            <path id="Path_5245" data-name="Path 5245" d="M150.726,138.569H121.251a.827.827,0,0,1,0-1.654h29.475a.827.827,0,1,1,0,1.654Z" transform="translate(-120.424 -136.915)" fill="#e03116" stroke="#e03116" stroke-width="1"/>
          </g>
        </g>
        <g id="Group_2524" data-name="Group 2524">
          <g id="Group_2523" data-name="Group 2523">
            <g id="Group_2521" data-name="Group 2521">
              <path id="Path_5246" data-name="Path 5246" d="M110.676,145.913a9.736,9.736,0,1,1,9.727-9.727,9.731,9.731,0,0,1-9.727,9.727Zm0-17.815a8.1,8.1,0,0,0-8.089,8.088,8.083,8.083,0,1,0,8.089-8.088Z" transform="translate(-100.933 -126.443)" fill="#e03116" stroke="#e03116" stroke-width="1"/>
            </g>
            <g id="Group_2522" data-name="Group 2522" transform="translate(3.959 7.108)">
              <path id="Path_5247" data-name="Path 5247" d="M109.172,139.94a.825.825,0,0,1-.585-.243l-4.061-4.061a.827.827,0,1,1,1.17-1.17l3.477,3.477,5.252-5.243a.827.827,0,0,1,1.168,1.171l-5.836,5.827A.829.829,0,0,1,109.172,139.94Z" transform="translate(-104.284 -132.459)" fill="#e03116" stroke="#e03116" stroke-width="1"/>
            </g>
          </g>
        </g>
      </g>
    </g>
  </g>
</svg>
